<svg t="1655218860549" class="icon" viewBox="0 0 1024 1024" version="1.1" xmlns="http://www.w3.org/2000/svg" p-id="3236" width="200" height="200"><path d="M334.08 744.96c-1.28 0-2.56-0.64-3.84-1.28-3.84-1.92-5.12-7.04-2.56-10.24l83.2-144c1.92-3.84 7.04-5.12 10.24-2.56 3.84 1.92 5.12 7.04 2.56 10.24l-83.2 144c-1.28 1.92-3.84 3.84-6.4 3.84zM431.36 336.64c-1.28 0-2.56-0.64-3.84-1.28-3.84-1.92-5.12-7.04-2.56-10.24l71.04-122.88c1.92-3.84 7.04-5.12 10.24-2.56 3.84 1.92 5.12 7.04 2.56 10.24L438.4 332.8c-1.92 2.56-4.48 3.84-7.04 3.84zM792.32 477.44c-1.28 0-2.56-0.64-3.84-1.28-3.84-1.92-5.12-7.04-2.56-10.24l46.08-79.36c1.92-3.84 7.04-5.12 10.24-2.56 3.84 1.92 5.12 7.04 2.56 10.24L798.72 473.6c-1.28 2.56-3.84 3.84-6.4 3.84zM773.76 630.4c-1.28 0-2.56-0.64-3.84-1.28-3.84-1.92-5.12-7.04-2.56-10.24l23.68-41.6c1.92-3.84 7.04-5.12 10.24-2.56 3.84 1.92 5.12 7.04 2.56 10.24l-23.68 41.6c-1.28 2.56-3.84 3.84-6.4 3.84zM585.6 673.92c-1.28 0-2.56-0.64-3.84-1.28-3.84-1.92-5.12-7.04-2.56-10.24l23.68-41.6c1.92-3.84 7.04-5.12 10.24-2.56 3.84 1.92 5.12 7.04 2.56 10.24l-23.68 41.6c-1.28 2.56-3.84 3.84-6.4 3.84z" fill="#00ABE0" p-id="3237"></path><path d="M551.04 833.28c-55.04 0-110.08-14.72-159.36-42.88-73.6-42.88-126.72-111.36-149.12-193.92-22.4-82.56-10.88-168.32 32-242.56 88.32-152.32 283.52-204.8 436.48-117.12 152.32 88.32 204.8 283.52 117.12 436.48-42.88 73.6-111.36 126.72-193.92 149.12-27.52 7.68-55.04 10.88-83.2 10.88z m1.28-623.36c-104.96 0-208 54.4-263.68 152.32-40.32 70.4-51.2 152.32-30.08 231.04s71.68 144 141.44 184.96c70.4 40.32 152.32 51.2 231.04 30.08s144-71.68 184.96-141.44c40.32-70.4 51.2-152.32 30.08-231.04-21.76-79.36-71.68-144.64-142.08-185.6-48-27.52-100.48-40.32-151.68-40.32z" fill="#211D1C" p-id="3238"></path><path d="M258.56 611.84c-1.28 0-2.56-0.64-3.84-1.28-3.84-1.92-5.12-7.04-2.56-10.24l51.2-88.96c0.64-1.28 0.64-2.56 0.64-3.2 0-0.64-0.64-1.92-1.92-2.56-1.28-0.64-2.56-0.64-3.2-0.64-1.28 0-1.92 0.64-2.56 1.92L256 577.92c-1.92 3.84-7.04 5.12-10.24 2.56-3.84-1.92-5.12-7.04-2.56-10.24l40.32-69.76c2.56-4.48 6.4-7.68 11.52-8.96 5.12-1.28 10.24-0.64 14.72 1.92 4.48 2.56 7.68 6.4 8.96 11.52 1.28 5.12 0.64 10.24-1.92 14.72l-51.2 88.96c-1.92 1.92-4.48 3.2-7.04 3.2zM506.88 402.56c-3.84 0-7.68-0.64-10.88-3.2-10.24-5.76-14.08-19.84-8.32-30.08L582.4 204.8c1.92-3.84 7.04-5.12 10.24-2.56 3.84 1.92 5.12 7.04 2.56 10.24L501.12 376.96c-1.92 3.2-0.64 7.68 2.56 9.6 3.2 1.92 7.68 0.64 9.6-2.56l99.84-173.44c1.92-3.84 7.04-5.12 10.24-2.56 3.84 1.92 5.12 7.04 2.56 10.24L526.08 391.68c-3.84 7.04-11.52 10.88-19.2 10.88zM572.16 824.96c-1.28 0-2.56-0.64-3.84-1.28-3.84-1.92-5.12-7.04-2.56-10.24l58.88-101.76c3.2-5.12 7.68-8.96 13.44-10.24 5.76-1.28 11.52-0.64 16.64 1.92 10.88 6.4 14.08 19.84 8.32 30.72L614.4 818.56c-1.92 3.84-7.04 5.12-10.24 2.56-3.84-1.92-5.12-7.04-2.56-10.24l48.64-84.48c1.92-3.2 0.64-7.68-2.56-9.6-1.92-1.28-3.84-1.28-5.76-0.64-1.92 0.64-3.2 1.92-4.48 3.2l-58.88 101.76c-1.28 2.56-3.2 3.84-6.4 3.84zM426.24 807.04c-1.28 0-2.56-0.64-3.84-1.28-3.84-1.92-5.12-7.04-2.56-10.24l55.68-96c0.64-1.28 0.64-2.56 0.64-3.84-0.64-1.28-1.28-2.56-2.56-3.2-1.28-0.64-2.56-0.64-3.84-0.64-1.28 0.64-2.56 1.28-3.2 2.56l-56.32 97.92c-1.92 3.84-7.04 5.12-10.24 2.56-3.84-1.92-5.12-7.04-2.56-10.24l56.32-97.92c2.56-4.48 7.04-7.68 12.16-9.6 5.12-1.28 10.88-0.64 15.36 1.92s7.68 7.04 9.6 12.16c1.28 5.12 0.64 10.88-1.92 15.36l-55.68 96c-1.28 3.2-3.84 4.48-7.04 4.48zM679.68 309.76c-3.84 0-7.68-1.28-10.88-3.2-5.12-3.2-8.96-7.68-10.24-13.44-1.28-5.76-0.64-11.52 1.92-16.64l25.6-44.16c1.92-3.84 7.04-5.12 10.24-2.56 3.84 1.92 5.12 7.04 2.56 10.24l-25.6 44.16c-0.64 1.92-1.28 3.84-0.64 5.12 0.64 1.92 1.92 3.2 3.2 4.48 1.92 0.64 3.84 1.28 5.12 0.64 1.92-0.64 3.2-1.92 4.48-3.2l25.6-44.8c1.92-3.84 7.04-5.12 10.24-2.56 3.84 1.92 5.12 7.04 2.56 10.24l-25.6 44.8c-3.2 5.12-7.68 8.96-13.44 10.24-1.28 0.64-3.2 0.64-5.12 0.64zM695.04 481.92c-3.84 0-7.04-0.64-10.88-2.56-10.24-5.76-13.44-19.2-7.68-29.44l90.24-156.16c1.92-3.84 7.04-5.12 10.24-2.56 3.84 1.92 5.12 7.04 2.56 10.24l-90.24 156.16c-1.92 3.2-0.64 7.04 2.56 8.32 3.2 1.92 7.04 0.64 8.32-2.56l85.76-148.48c1.92-3.84 7.04-5.12 10.24-2.56 3.84 1.92 5.12 7.04 2.56 10.24l-85.76 148.48c-3.2 7.04-10.88 10.88-17.92 10.88z" fill="#211D1C" p-id="3239"></path><path d="M528 525.44c-1.28 0-2.56-0.64-3.84-1.28-3.84-1.92-5.12-7.04-2.56-10.24L569.6 431.36c1.92-3.84 7.04-5.12 10.24-2.56 3.84 1.92 5.12 7.04 2.56 10.24l-48 82.56c-1.28 2.56-3.84 3.84-6.4 3.84zM384 548.48c-1.28 0-2.56-0.64-3.84-1.28-3.84-1.92-5.12-7.04-2.56-10.24l23.68-41.6c1.92-3.84 6.4-5.12 10.24-2.56 3.84 1.92 5.12 7.04 2.56 10.24L390.4 545.28c-1.28 1.92-3.84 3.2-6.4 3.2zM328.32 379.52c-1.28 0-2.56-0.64-3.84-1.28-3.84-1.92-5.12-7.04-2.56-10.24L345.6 326.4c1.92-3.84 6.4-5.12 10.24-2.56 3.84 1.92 5.12 7.04 2.56 10.24l-23.68 41.6c-0.64 2.56-3.2 3.84-6.4 3.84z" fill="#00ABE0" p-id="3240"></path><path d="M758.4 250.88h-1.92c-4.48 0-7.68-3.84-7.68-7.68s3.2-7.68 7.68-7.68h1.28c4.48 0 7.68 3.84 7.04 7.68 1.28 4.48-1.92 7.68-6.4 7.68zM796.8 253.44h-3.2c-4.48-0.64-7.04-3.84-7.04-8.32 0.64-4.48 3.84-7.04 8.32-7.04h2.56c4.48 0.64 7.04 3.84 7.04 8.32 0 3.84-3.2 7.04-7.68 7.04z m-19.2-1.28h-3.2c-4.48 0-7.68-3.84-7.04-7.68 0-4.48 3.84-7.68 7.68-7.04h2.56c4.48 0 7.68 3.84 7.04 7.68 0.64 3.84-2.56 7.04-7.04 7.04zM815.36 254.72H813.44c-3.84-0.64-7.04-4.48-6.4-8.32 0.64-3.84 4.48-7.04 8.32-6.4h1.28c3.84 0.64 7.04 4.48 6.4 8.32-0.64 3.84-3.84 6.4-7.68 6.4zM963.2 309.12c-1.92 0-3.84-0.64-5.12-1.92l-1.28-0.64c-3.2-2.56-3.2-7.68-0.64-10.88s7.68-3.2 10.88-0.64l1.28 1.28c3.2 2.56 3.2 7.68 0.64 10.88-1.92 1.28-3.84 1.92-5.76 1.92zM341.76 696.96c-3.84 0-7.68-3.2-7.68-7.68s3.2-7.68 7.68-7.68h3.2c3.84 0 7.68 3.2 7.68 7.68s-3.2 7.68-7.68 7.68h-3.2z m-18.56 0H320c-4.48 0-7.68-3.84-7.68-7.68 0-4.48 3.2-7.68 7.68-7.68h3.2c4.48 0 7.68 3.2 7.68 7.68s-3.84 7.68-7.68 7.68z m40.32-0.64c-3.84 0-7.68-3.2-7.68-7.04 0-4.48 3.2-7.68 7.04-7.68h3.2c3.84 0 7.68 3.2 7.68 7.04 0 4.48-3.2 7.68-7.04 7.68h-3.2z m-62.08 0h-3.2c-4.48 0-7.68-3.84-7.04-7.68 0-4.48 3.84-7.68 7.68-7.04h3.2c4.48 0 7.68 3.84 7.04 7.68 0 3.84-3.84 7.04-7.68 7.04z m83.84-1.28c-3.84 0-7.04-3.2-7.68-7.04 0-4.48 3.2-7.68 7.04-8.32h3.2c3.84 0 7.68 3.2 8.32 7.04 0 4.48-3.2 7.68-7.04 8.32h-3.84z m-105.6-0.64h-3.84c-4.48-0.64-7.04-3.84-7.04-8.32 0.64-4.48 3.84-7.04 8.32-7.04h3.2c4.48 0.64 7.04 3.84 7.04 8.32 0 4.48-3.2 7.04-7.68 7.04z m127.36-0.64c-3.84 0-7.04-3.2-7.68-7.04-0.64-4.48 2.56-7.68 7.04-8.32h2.56l0.64 7.68 0.64 7.68h-3.2z m-148.48-1.28h-0.64l-3.2-0.64c-3.84-0.64-7.04-4.48-6.4-8.32 0.64-3.84 4.48-7.04 8.32-6.4l3.2 0.64c3.84 0.64 7.04 4.48 6.4 8.32-0.64 3.2-3.84 6.4-7.68 6.4z m169.6-0.64c-3.84 0-7.04-2.56-7.68-7.04-0.64-3.84 2.56-7.68 6.4-8.32l3.2-0.64c3.84-0.64 7.68 2.56 8.32 6.4 0.64 3.84-2.56 7.68-6.4 8.32l-3.2 0.64c0 0.64 0 0.64-0.64 0.64z m-191.36-2.56h-1.28l-3.2-0.64c-3.84-0.64-7.04-4.48-6.4-8.96 0.64-3.84 4.48-7.04 8.96-6.4l3.2 0.64c3.84 0.64 7.04 4.48 6.4 8.96-0.64 3.84-3.84 6.4-7.68 6.4z m213.12 0c-3.84 0-7.04-2.56-7.68-6.4-0.64-3.84 2.56-7.68 6.4-8.32l3.2-0.64c3.84-0.64 7.68 2.56 8.32 6.4 0.64 3.84-2.56 7.68-6.4 8.32l-3.2 0.64h-0.64z m21.12-3.2c-3.84 0-7.04-2.56-7.68-6.4-0.64-3.84 2.56-7.68 6.4-8.32l2.56-0.64 2.56 14.72-3.2 0.64h-0.64z m-255.36-1.28h-1.92l-3.2-0.64c-3.84-1.28-6.4-5.12-5.76-8.96 0.64-3.84 5.12-6.4 8.96-5.76l2.56 0.64c3.84 0.64 6.4 5.12 5.76 8.96 0 3.2-2.56 5.76-6.4 5.76z m277.12-2.56c-3.84 0-7.04-2.56-7.68-6.4-0.64-3.84 1.92-8.32 6.4-8.96l3.2-0.64c3.84-0.64 8.32 1.92 8.96 6.4 0.64 3.84-1.92 8.32-6.4 8.96l-3.2 0.64H492.8z m-298.24-2.56h-1.92l-3.2-0.64c-3.84-1.28-6.4-5.12-5.12-9.6 1.28-3.84 5.12-6.4 9.6-5.12l2.56 0.64c3.84 1.28 6.4 5.12 5.12 9.6-0.64 3.2-3.84 5.12-7.04 5.12z m319.36-1.28c-3.84 0-6.4-2.56-7.68-6.4-0.64-3.84 1.92-8.32 5.76-8.96l3.2-0.64c3.84-0.64 8.32 1.92 8.96 5.76 0.64 3.84-1.92 8.32-5.76 8.96l-3.2 0.64c0 0.64-0.64 0.64-1.28 0.64z m21.12-4.48c-3.2 0-6.4-2.56-7.68-5.76-0.64-3.84 1.92-8.32 5.76-8.96l3.2-0.64c3.84-0.64 8.32 1.92 8.96 5.76 0.64 3.84-1.92 8.32-5.76 8.96l-3.2 0.64h-1.28z m-360.96-1.28c-0.64 0-1.92 0-2.56-0.64l-3.2-1.28c-3.84-1.28-5.76-5.76-4.48-9.6 1.28-3.84 5.76-5.76 9.6-4.48l2.56 1.28c3.84 1.28 5.76 5.76 4.48 9.6-0.64 3.2-3.2 5.12-6.4 5.12z m382.08-3.2c-3.2 0-6.4-2.56-7.68-5.76-0.64-3.84 1.28-8.32 5.76-8.96l3.2-0.64c3.84-1.28 8.32 1.28 8.96 5.76 1.28 3.84-1.28 8.32-5.76 8.96l-3.2 0.64h-1.28z m-401.92-5.12c-1.28 0-1.92 0-3.2-0.64l-2.56-1.28c-3.84-1.92-5.12-6.4-3.2-10.24 1.92-3.84 6.4-5.12 10.24-3.2l2.56 1.28c3.84 1.92 5.12 6.4 3.84 10.24-1.92 2.56-5.12 3.84-7.68 3.84z m423.04 0c-3.2 0-6.4-2.56-7.04-5.76-1.28-3.84 1.28-8.32 5.76-8.96l3.2-0.64c3.84-1.28 8.32 1.28 8.96 5.12 1.28 3.84-1.28 8.32-5.12 8.96l-3.2 0.64c-1.28 0.64-1.92 0.64-2.56 0.64z m21.12-5.76c-3.2 0-6.4-1.92-7.04-5.76-1.28-3.84 1.28-8.32 5.12-8.96l2.56-0.64c3.84-1.28 8.32 1.28 9.6 5.12 1.28 3.84-1.28 8.32-5.12 9.6l-3.2 0.64h-1.92z m-463.36-4.48c-1.28 0-2.56-0.64-3.84-1.28-0.64-0.64-1.92-1.28-2.56-1.92-3.2-2.56-4.48-7.04-1.92-10.24 2.56-3.2 7.04-4.48 10.24-1.92 0.64 0.64 1.28 1.28 2.56 1.28 3.84 1.92 4.48 7.04 2.56 10.24-1.92 2.56-4.48 3.84-7.04 3.84z m483.84-1.28c-3.2 0-6.4-1.92-7.04-5.12-1.28-3.84 1.28-8.32 5.12-9.6l3.2-0.64c3.84-1.28 8.32 1.28 9.6 5.12 1.28 3.84-1.28 8.32-5.12 9.6l-3.2 0.64h-2.56z m21.12-6.4c-3.2 0-6.4-1.92-7.04-5.12-1.28-3.84 0.64-8.32 5.12-9.6l2.56-0.64c3.84-1.28 8.32 0.64 9.6 5.12 1.28 3.84-0.64 8.32-5.12 9.6l-3.2 0.64h-1.92z m-522.24-5.12c-1.92 0-3.84-0.64-5.12-1.92-0.64-0.64-1.28-1.28-2.56-1.92-3.2-2.56-3.2-7.68-0.64-10.88s7.68-3.2 10.88-0.64l1.92 1.92c3.2 2.56 3.2 7.68 0.64 10.88-0.64 1.92-3.2 2.56-5.12 2.56z m542.72-1.92c-3.2 0-6.4-1.92-7.04-5.12-1.28-3.84 0.64-8.32 4.48-9.6l2.56-1.28c3.84-1.28 8.32 0.64 9.6 4.48 1.28 3.84-0.64 8.32-4.48 9.6l-3.2 1.28c-0.64 0.64-1.28 0.64-1.92 0.64z m20.48-7.04c-3.2 0-5.76-1.92-7.04-5.12-1.28-3.84 0.64-8.32 4.48-9.6l2.56-1.28c3.84-1.28 8.32 0.64 9.6 4.48 1.28 3.84-0.64 8.32-4.48 9.6l-2.56 1.28c-0.64 0.64-1.92 0.64-2.56 0.64z m-577.92-6.4c-2.56 0-4.48-1.28-5.76-3.2-0.64-0.64-1.28-1.92-1.92-2.56-2.56-3.2-1.92-8.32 1.92-10.88 3.2-2.56 8.32-1.92 10.88 1.92l1.92 1.92c2.56 3.2 1.92 8.32-1.28 10.88-2.56 1.28-4.48 1.92-5.76 1.92z m598.4-1.28c-3.2 0-5.76-1.92-7.04-5.12-1.28-3.84 0.64-8.32 4.48-9.6l2.56-1.28c3.84-1.28 8.32 0.64 9.6 4.48 1.28 3.84-0.64 8.32-4.48 9.6l-2.56 1.28c-1.28 0.64-1.92 0.64-2.56 0.64z m19.84-7.68c-3.2 0-5.76-1.92-7.04-4.48-1.28-3.84 0-8.32 4.48-9.6l2.56-1.28c3.84-1.92 8.32 0 9.6 3.84 1.92 3.84 0 8.32-3.84 9.6l-2.56 1.28c-1.28 0-2.56 0.64-3.2 0.64z m19.84-8.96c-3.2 0-5.76-1.92-7.04-4.48-1.92-3.84 0-8.32 3.84-10.24l2.56-1.28c3.84-1.92 8.32 0 10.24 3.84 1.92 3.84 0 8.32-3.84 10.24l-2.56 1.28c-1.28 0.64-1.92 0.64-3.2 0.64z m-649.6-0.64c-3.2 0-5.76-1.92-7.04-4.48-0.64-1.28-0.64-1.92-1.28-3.2-1.28-3.84 0-8.32 3.84-9.6 3.84-1.28 8.32 0 9.6 3.84 0.64 0.64 0.64 1.92 1.28 2.56 1.92 3.84 0 8.32-3.84 10.24-0.64 0-1.28 0.64-2.56 0.64z m669.44-8.32c-2.56 0-5.76-1.92-7.04-4.48-1.92-3.84 0-8.32 3.84-10.24l2.56-1.28c3.84-1.92 8.32 0 10.24 3.84 1.92 3.84 0 8.32-3.84 10.24l-2.56 1.28c-1.28 0.64-1.92 0.64-3.2 0.64z m19.84-8.96c-2.56 0-5.76-1.28-7.04-4.48-1.92-3.84-0.64-8.32 3.2-10.24l2.56-1.28c3.84-1.92 8.32-0.64 10.24 3.2 1.92 3.84 0.64 8.32-3.2 10.24l-2.56 1.28c-1.28 0.64-2.56 1.28-3.2 1.28z m-695.04-3.84c-3.84 0-7.04-2.56-7.68-6.4 0-1.28-0.64-1.92-0.64-3.2-0.64-3.84 2.56-7.68 6.4-8.32 3.84-0.64 7.68 2.56 8.32 6.4 0 0.64 0 1.92 0.64 2.56 0.64 3.84-1.92 8.32-6.4 8.96h-0.64z m714.24-6.4c-2.56 0-5.12-1.28-6.4-3.84-1.92-3.84-0.64-8.32 3.2-10.24l2.56-1.28c3.84-1.92 8.32-0.64 10.24 3.2 1.92 3.84 0.64 8.32-3.2 10.24l-2.56 1.28c-1.92 0.64-2.56 0.64-3.84 0.64z m18.56-10.24c-2.56 0-5.12-1.28-6.4-3.84-1.92-3.84-0.64-8.32 3.2-10.24l2.56-1.28c3.84-1.92 8.32-0.64 10.24 2.56 1.92 3.84 0.64 8.32-2.56 10.24l-2.56 1.28c-1.92 1.28-3.2 1.28-4.48 1.28z m-733.44-4.48h-0.64c-4.48-0.64-7.04-3.84-7.04-8.32 0-1.28 0-1.92 0.64-3.2 0.64-3.84 4.48-7.04 8.32-6.4 3.84 0.64 7.04 4.48 6.4 8.32v2.56c-0.64 3.84-3.84 7.04-7.68 7.04z m752.64-6.4c-2.56 0-5.12-1.28-6.4-3.84-1.92-3.84-1.28-8.32 2.56-10.24l2.56-1.28c3.84-1.92 8.32-1.28 10.24 2.56 1.92 3.84 1.28 8.32-2.56 10.24l-2.56 1.28c-1.28 1.28-2.56 1.28-3.84 1.28z m17.92-11.52c-2.56 0-5.12-1.28-6.4-3.2-2.56-3.2-1.28-8.32 1.92-10.24l2.56-1.92c3.2-2.56 8.32-1.28 10.24 1.92 2.56 3.2 1.28 8.32-1.92 10.24l-2.56 1.92c-0.64 1.28-1.92 1.28-3.84 1.28zM88.96 544c-0.64 0-1.28 0-1.92-0.64-3.84-1.28-6.4-5.76-5.12-9.6 0-1.28 0.64-1.92 1.28-3.2 1.28-3.84 5.76-6.4 9.6-4.48 3.84 1.28 6.4 5.76 4.48 9.6 0 0.64-0.64 1.92-0.64 2.56-1.28 3.2-4.48 5.76-7.68 5.76z m784.64-8.96c-2.56 0-4.48-1.28-6.4-3.2-2.56-3.2-1.28-8.32 1.92-10.24l2.56-1.92c3.2-2.56 8.32-1.92 10.24 1.92 2.56 3.2 1.92 8.32-1.92 10.24l-2.56 1.92c-0.64 1.28-1.92 1.28-3.84 1.28zM97.28 523.52c-1.28 0-2.56 0-3.2-0.64-3.84-1.92-5.12-6.4-3.2-10.24 0.64-0.64 0.64-1.92 1.28-2.56 1.92-3.84 6.4-5.12 10.24-3.2 3.84 1.92 5.12 6.4 3.2 10.24l-1.28 2.56c-1.92 2.56-4.48 3.84-7.04 3.84z m794.24-1.28c-2.56 0-4.48-1.28-5.76-3.2-2.56-3.2-1.92-8.32 1.28-10.88l2.56-1.92c3.2-2.56 8.32-1.92 10.88 1.28 2.56 3.2 1.92 8.32-1.28 10.88l-2.56 1.92c-1.92 1.92-3.84 1.92-5.12 1.92z m16.64-13.44c-1.92 0-4.48-0.64-5.76-2.56-2.56-3.2-1.92-7.68 1.28-10.88l2.56-1.92c3.2-2.56 7.68-2.56 10.88 0.64 2.56 3.2 2.56 7.68-0.64 10.88l-2.56 1.92c-1.92 1.92-3.84 1.92-5.76 1.92z m-800-3.84c-1.28 0-2.56-0.64-3.84-1.28-3.2-2.56-4.48-7.04-1.92-10.24l1.92-2.56c2.56-3.2 7.04-4.48 10.24-1.92 3.2 2.56 4.48 7.04 1.92 10.24l-1.92 2.56c-1.92 1.92-3.84 3.2-6.4 3.2z m816.64-10.24c-1.92 0-3.84-0.64-5.76-2.56-2.56-3.2-2.56-7.68 0.64-10.88l1.92-1.92c3.2-2.56 7.68-2.56 10.88 0.64 2.56 3.2 2.56 7.68-0.64 10.88l-2.56 1.92c-0.64 1.28-2.56 1.92-4.48 1.92zM120.96 487.68c-1.92 0-3.2-0.64-4.48-1.92-3.2-2.56-3.84-7.68-1.28-10.88l1.92-2.56c2.56-3.2 7.68-3.84 10.88-1.28 3.2 2.56 3.84 7.68 1.28 10.88l-1.92 2.56c-1.92 1.92-4.48 3.2-6.4 3.2z m819.2-8.32c-1.92 0-3.84-0.64-5.12-1.92-3.2-3.2-3.2-7.68 0-10.88l1.92-1.92c3.2-3.2 7.68-3.2 10.88 0 3.2 2.56 3.2 7.68 0 10.88l-1.92 1.92c-1.92 1.28-3.84 1.92-5.76 1.92zM135.04 471.04c-1.92 0-3.84-0.64-5.12-1.92-3.2-2.56-3.2-7.68-0.64-10.88l1.92-1.92c2.56-3.2 7.68-3.2 10.88 0 3.2 2.56 3.2 7.68 0 10.88l-1.28 1.28c-1.92 1.92-3.84 2.56-5.76 2.56z m819.84-7.68c-1.92 0-3.2-0.64-4.48-1.92-3.2-2.56-3.84-7.68-1.28-10.88l1.92-2.56c2.56-3.2 7.68-3.84 10.88-1.28 3.2 2.56 3.84 7.68 1.28 10.88l-1.92 2.56c-2.56 2.56-4.48 3.2-6.4 3.2zM150.4 455.68c-1.92 0-3.84-0.64-5.76-2.56-2.56-3.2-2.56-7.68 0-10.88l2.56-1.92c3.2-2.56 7.68-2.56 10.88 0.64 2.56 3.2 2.56 7.68-0.64 10.88l-1.92 1.92c-1.28 1.28-3.2 1.92-5.12 1.92z m817.28-9.6c-1.28 0-3.2-0.64-4.48-1.28-3.2-2.56-4.48-7.04-1.92-10.24l1.92-2.56c2.56-3.2 7.04-4.48 10.24-1.92 3.2 2.56 4.48 7.04 1.92 10.24l-1.92 2.56c-1.28 1.92-3.2 3.2-5.76 3.2zM166.4 441.6c-1.92 0-4.48-0.64-5.76-2.56-2.56-3.2-2.56-7.68 0.64-10.88l1.92-1.92c3.2-2.56 8.32-2.56 10.88 0.64 2.56 3.2 2.56 7.68-0.64 10.24l-2.56 1.92c-0.64 1.92-2.56 2.56-4.48 2.56z m812.16-14.08c-1.28 0-2.56 0-3.84-0.64-3.84-1.92-5.12-6.4-3.2-10.24l1.28-2.56c1.92-3.84 6.4-5.12 10.24-3.2 3.84 1.92 5.12 6.4 3.2 10.24-0.64 0.64-0.64 1.92-1.28 2.56-0.64 2.56-3.2 3.84-6.4 3.84z m-795.52 0c-2.56 0-4.48-1.28-5.76-3.2-2.56-3.2-1.92-8.32 1.28-10.88l2.56-1.92c3.2-2.56 8.32-1.92 10.88 1.28 2.56 3.2 1.92 8.32-1.28 10.88l-2.56 1.92c-1.92 1.28-3.2 1.92-5.12 1.92z m17.92-12.8c-2.56 0-4.48-1.28-6.4-3.2-2.56-3.2-1.92-8.32 1.92-10.24l2.56-1.92c3.2-2.56 8.32-1.92 10.24 1.92 2.56 3.2 1.28 8.32-1.92 10.24l-2.56 1.92c-1.28 0.64-2.56 1.28-3.84 1.28z m786.56-7.04c-0.64 0-1.92 0-2.56-0.64-3.84-1.28-5.76-5.76-4.48-9.6 0-0.64 0.64-1.92 0.64-2.56 1.28-3.84 5.76-6.4 9.6-5.12 3.84 1.28 6.4 5.76 5.12 9.6-0.64 1.28-0.64 1.92-1.28 3.2-1.28 3.2-3.84 5.12-7.04 5.12z m-768.64-5.12c-2.56 0-5.12-1.28-6.4-3.2-2.56-3.2-1.28-8.32 1.92-10.24l2.56-1.92c3.2-2.56 8.32-1.28 10.24 1.92 2.56 3.2 1.28 8.32-1.92 10.24l-2.56 1.92c-1.28 0.64-2.56 1.28-3.84 1.28z m773.76-15.36h-1.28c-3.84-0.64-7.04-4.48-6.4-8.32 0-0.64 0-1.92 0.64-2.56 0.64-4.48 4.48-7.04 8.32-7.04 3.84 0.64 7.04 3.84 7.04 8.32 0 1.28 0 1.92-0.64 3.2-0.64 3.2-3.84 6.4-7.68 6.4z m0-21.76c-3.84 0-7.04-2.56-7.68-7.04 0-0.64 0-1.92-0.64-2.56-0.64-3.84 2.56-7.68 6.4-8.32 4.48-0.64 7.68 2.56 8.32 6.4 0 1.28 0 1.92 0.64 3.2 0.64 3.84-2.56 7.68-6.4 8.32h-0.64z m-5.12-21.12c-3.2 0-5.76-1.92-7.04-5.12-0.64-0.64-0.64-1.92-1.28-2.56-1.92-3.84 0-8.32 3.84-10.24 3.84-1.92 8.32 0 10.24 3.84 0.64 1.28 0.64 1.92 1.28 3.2 1.28 3.84-0.64 8.32-4.48 9.6-0.64 1.28-1.28 1.28-2.56 1.28z m-10.24-19.2c-2.56 0-4.48-1.28-6.4-3.2l-1.92-1.92c-2.56-3.2-1.92-8.32 1.28-10.88 3.2-2.56 8.32-1.92 10.88 1.28 0.64 0.64 1.28 1.92 1.92 2.56 2.56 3.2 1.92 8.32-1.92 10.24-0.64 1.92-1.92 1.92-3.84 1.92zM237.44 391.04c-2.56 0-5.12-1.28-6.4-3.84-1.92-3.84-1.28-8.32 2.56-10.24l1.28-0.64c3.84-1.92 8.32-1.28 10.24 2.56 1.92 3.84 1.28 8.32-2.56 10.24l-1.28 0.64c-1.28 0.64-2.56 1.28-3.84 1.28z" fill="#211D1C" p-id="3241"></path><path d="M894.08 310.4c-20.48 0-39.68-13.44-44.8-34.56-6.4-24.96 8.32-50.56 32.64-56.96 24.96-6.4 50.56 8.32 56.96 32.64 6.4 24.96-8.32 50.56-32.64 56.96-3.84 1.92-7.68 1.92-12.16 1.92z m0-77.44c-2.56 0-5.12 0.64-8.32 1.28-8.32 1.92-14.72 7.68-19.2 14.72-4.48 7.04-5.12 16-3.2 23.68 4.48 16.64 21.76 26.88 38.4 22.4 16.64-4.48 26.88-21.76 22.4-38.4-3.2-14.72-16-23.68-30.08-23.68z" fill="#00ABE0" p-id="3242"></path><path d="M249.6 808.32m-6.4 0a6.4 6.4 0 1 0 12.8 0 6.4 6.4 0 1 0-12.8 0Z" fill="#00ABE0" p-id="3243"></path><path d="M609.92 974.08m-6.4 0a6.4 6.4 0 1 0 12.8 0 6.4 6.4 0 1 0-12.8 0Z" fill="#00ABE0" p-id="3244"></path><path d="M200.96 267.52m-6.4 0a6.4 6.4 0 1 0 12.8 0 6.4 6.4 0 1 0-12.8 0Z" fill="#00ABE0" p-id="3245"></path><path d="M428.16 64m-6.4 0a6.4 6.4 0 1 0 12.8 0 6.4 6.4 0 1 0-12.8 0Z" fill="#00ABE0" p-id="3246"></path><path d="M753.28 138.24m-6.4 0a6.4 6.4 0 1 0 12.8 0 6.4 6.4 0 1 0-12.8 0Z" fill="#00ABE0" p-id="3247"></path><path d="M925.44 755.2m-6.4 0a6.4 6.4 0 1 0 12.8 0 6.4 6.4 0 1 0-12.8 0Z" fill="#00ABE0" p-id="3248"></path></svg>
